<?xml version="1.0" encoding="UTF-8" standalone="no"?>
<!-- Created with Inkscape (http://www.inkscape.org/) -->

<svg
   xmlns:dc="http://purl.org/dc/elements/1.1/"
   xmlns:cc="http://creativecommons.org/ns#"
   xmlns:rdf="http://www.w3.org/1999/02/22-rdf-syntax-ns#"
   xmlns:svg="http://www.w3.org/2000/svg"
   xmlns="http://www.w3.org/2000/svg"
   xmlns:sodipodi="http://sodipodi.sourceforge.net/DTD/sodipodi-0.dtd"
   xmlns:inkscape="http://www.inkscape.org/namespaces/inkscape"
   width="256.00394"
   height="213.48425"
   id="svg2"
   version="1.1"
   inkscape:version="0.48.4 r9939"
   sodipodi:docname="heart.svg">
  <defs
     id="defs4" />
  <sodipodi:namedview
     id="base"
     pagecolor="#ffffff"
     bordercolor="#666666"
     borderopacity="1.0"
     inkscape:pageopacity="0.0"
     inkscape:pageshadow="2"
     inkscape:zoom="1.979899"
     inkscape:cx="182.57191"
     inkscape:cy="144.0766"
     inkscape:document-units="mm"
     inkscape:current-layer="layer1"
     showgrid="false"
     fit-margin-top="1"
     fit-margin-left="1"
     fit-margin-right="1"
     fit-margin-bottom="1"
     inkscape:window-width="1935"
     inkscape:window-height="1450"
     inkscape:window-x="154"
     inkscape:window-y="232"
     inkscape:window-maximized="0"
     units="mm" />
  <metadata
     id="metadata7">
    <rdf:RDF>
      <cc:Work
         rdf:about="">
        <dc:format>image/svg+xml</dc:format>
        <dc:type
           rdf:resource="http://purl.org/dc/dcmitype/StillImage" />
        <dc:title></dc:title>
      </cc:Work>
    </rdf:RDF>
  </metadata>
  <g
     inkscape:label="Layer 1"
     inkscape:groupmode="layer"
     id="layer1"
     transform="translate(-55.366739,-455.88717)">
    <path
       style="fill:#000000"
       d="m 120.875,467.25 c -22.028112,0.0759 -45.885442,13.10881 -51.5625,35.65625 -7.776684,24.94004 3.468004,52.48724 22.59375,69.125 24.94794,24.85531 51.79189,48.02965 76.90881,72.76902 4.86495,4.3476 9.81326,9.06949 15.37244,12.26223 7.0979,-5.13353 12.12569,-12.54674 19.18033,-17.80271 29.17762,-27.51848 60.50034,-53.04741 85.78842,-84.07229 13.75857,-20.79022 15.44321,-51.43025 -1.78125,-70.5625 -19.78334,-21.30326 -55.01244,-22.24432 -78.4375,-6.34375 -8.97404,5.10326 -15.82642,13.5209 -24.90625,18.25 -6.98676,0.70533 -9.66018,-7.47981 -15.26206,-10.20257 C 155.17106,475.40717 138.68089,466.51255 120.875,467.25 z"
       id="path2996"
       inkscape:connector-curvature="0" />
  </g>
</svg>
